<?xml version="1.0" encoding="utf-8"?>
<svg fill="none" height="100" viewBox="0 0 301 100" width="301" xmlns="http://www.w3.org/2000/svg">
  <linearGradient id="a" gradientUnits="userSpaceOnUse" x1="60.6679" x2="-9.89544" y1=".634277" y2="60.4897">
    <stop offset="0" stop-color="#792ee5"/>
    <stop offset="1" stop-color="#428ff4"/>
  </linearGradient>
  <clipPath id="b">
    <path d="m78.3627 20.6343h221.64v40.6728h-221.64z"/>
  </clipPath>
  <path d="m29.0045 1.00163-27.67939 16.51037c-.402904.2409-.737378.5868-.969934 1.003s-.35502566.888-.355176 1.3684v33.0251c.00015034.4804.12262.9523.355176 1.3685.232556.4161.56703.7619.969934 1.0029l27.67939 16.508c.4042.2407.8627.3675 1.3295.3675.4667 0 .9252-.1268 1.3294-.3675l27.6794-16.508c.4029-.241.7374-.5868.9699-1.0029.2326-.4162.355-.8881.3552-1.3685v-33.0251c-.0002-.4804-.1226-.9522-.3552-1.3684-.2325-.4162-.567-.7621-.9699-1.003l-27.6794-16.51037c-.4042-.240687-.8627-.367353-1.3294-.367353-.4668 0-.9253.126666-1.3295.367353zm-4.5115 55.05147 3.2866-14.4399c.0235-.1046.0207-.2137-.0083-.3168s-.0831-.1969-.1573-.2722l-7.9813-8.0135c-.0571-.0579-.1025-.127-.1335-.2032-.031-.0763-.0469-.1581-.0469-.2407 0-.0827.0159-.1645.0469-.2407s.0764-.1453.1335-.2033l15.5767-15.9775c.0926-.0959.2129-.1579.3428-.1767s.2622.0067.3767.0727c.1145.0659.205.1686.2577.2925s.0647.2621.0341.3937l-3.291 14.476c-.0247.1045-.0224.2139.0067.3172s.0839.197.1589.2717l7.9203 7.9708c.057.0578.1024.1267.1333.2027.031.0761.0469.1576.0469.2401 0 .0824-.0159.1641-.0469.2401-.0309.0761-.0763.145-.1333.2027l-15.5245 15.9888c-.0934.0934-.2134.1532-.3424.1705-.129.0172-.26-.0089-.3734-.0746s-.2033-.1674-.2561-.2899c-.0528-.1226-.0659-.2596-.0372-.3905z" fill="url(#a)"/>
  <path d="m24.493 56.0531 3.2866-14.4399c.0235-.1046.0207-.2137-.0083-.3168s-.0831-.1969-.1573-.2722l-7.9813-8.0135c-.0571-.0579-.1025-.127-.1335-.2032-.031-.0763-.0469-.1581-.0469-.2407 0-.0827.0159-.1645.0469-.2407s.0764-.1453.1335-.2033l15.5767-15.9775c.0926-.0959.2129-.1579.3428-.1767s.2622.0067.3767.0727c.1145.0659.205.1686.2577.2925s.0647.2621.0341.3937l-3.291 14.476c-.0247.1045-.0224.2139.0067.3172s.0839.197.1589.2717l7.9203 7.9708c.057.0578.1024.1267.1333.2027.031.0761.0469.1576.0469.2401 0 .0824-.0159.1641-.0469.2401-.0309.0761-.0763.145-.1333.2027l-15.5245 15.9888c-.0934.0934-.2134.1532-.3424.1705-.129.0172-.26-.0089-.3734-.0746s-.2033-.1674-.2561-.2899c-.0528-.1226-.0659-.2596-.0372-.3905z" fill="#fff"/>
  <g clip-path="url(#b)" fill="#1c1c1c">
    <g clip-rule="evenodd" fill-rule="evenodd">
      <path d="m146.766 30.5686c-1.232-.0314-2.451.256-3.539.8342-.74.3808-1.421.866-2.023 1.4409v-11.173h-5.055v30.6625h5.055v-11.9061c-.062-1.3143.371-2.6041 1.214-3.6148.409-.452.915-.8069 1.479-1.0387s1.173-.3346 1.782-.301c.592-.04 1.186.0579 1.734.286s1.036.5801 1.426 1.0285c.752.9166 1.148 2.0752 1.112 3.2609v12.2852h5.055v-12.8666c.069-1.193-.1-2.3878-.494-3.5156-.395-1.1279-1.009-2.1667-1.806-3.0568-.784-.7653-1.714-1.3655-2.734-1.7649-1.021-.3995-2.111-.5902-3.206-.5607z"/>
      <path d="m126.391 32.6416c-.67-.5562-1.409-1.0235-2.199-1.3903-1.074-.4748-2.239-.7078-3.412-.6826-1.419-.0057-2.823.2872-4.121.8595-1.244.5524-2.369 1.3424-3.311 2.3256-.928.9947-1.649 2.1631-2.124 3.4379-.576 1.3339-.886 2.7683-.91 4.2214.043 1.4265.352 2.8324.91 4.1457.46 1.2594 1.145 2.4244 2.023 3.4378.941 1.0023 2.076 1.8022 3.336 2.3509 1.324.5748 2.753.8675 4.197.8595 2.037.0349 4.023-.6448 5.611-1.9212v1.2386c.072.6641-.003 1.3358-.218 1.9679-.216.6321-.567 1.2093-1.03 1.6912-.462.4818-1.025.8565-1.648 1.0978-.622.2412-1.291.3432-1.957.2988-1.11.0444-2.214-.1903-3.21-.6825-.836-.4843-1.499-1.218-1.896-2.0981v-.177h-5.435c.125 1.5339.706 2.9954 1.668 4.1962 1.129 1.1808 2.512 2.0885 4.045 2.6543 1.513.5621 3.113.8531 4.727.8594 1.34.0919 2.686-.0842 3.958-.5183 1.271-.434 2.444-1.1172 3.448-2.0095.893-.9039 1.586-1.9853 2.035-3.174.449-1.1888.642-2.4585.569-3.727v-20.9557h-5.056zm-1.263 12.9424c-.511.5585-1.13 1.0059-1.821 1.3145-.691.306-1.443.4528-2.199.4297-.747.0193-1.49-.1274-2.174-.4297-.694-.302-1.315-.7504-1.82-1.3145-1.037-1.14-1.606-2.6296-1.592-4.1709-.027-.7702.099-1.5381.373-2.2587.273-.7206.688-1.3793 1.219-1.9375.506-.5507 1.128-.9823 1.82-1.2639.69-.2823 1.43-.42 2.174-.4044.747-.0091 1.487.1373 2.174.4297.684.2869 1.303.7081 1.82 1.2386.533.5546.954 1.2069 1.239 1.9212.295.721.433 1.4966.404 2.275.007 1.5447-.571 3.0348-1.617 4.1709z"/>
      <path d="m166.584 23.8447-4.803 1.7442v5.3337h-4.449v4.6007h4.12v9.7069c-.063.9946.094 1.991.461 2.9175.367.9266.935 1.7604 1.663 2.4414 1.406 1.2034 3.205 1.8508 5.055 1.8201h1.441 1.087.278v-4.6259h-2.073c-.377.0263-.755-.0254-1.112-.1517-.344-.1479-.66-.3531-.935-.6067-.281-.3095-.495-.6733-.63-1.069-.135-.3956-.187-.8147-.154-1.2313v-9.2013h5.612v-4.6007h-5.561z"/>
    </g>
    <path d="m106.447 30.9478h-5.132v21.3854h5.132z"/>
    <path d="m181.7 36.1299h-5.131v16.4056h5.131z"/>
    <path d="m106.422 21.696h-5.132v5.2074h5.132z"/>
    <path clip-rule="evenodd" d="m83.6711 21.696h-5.3084v30.6626h18.8576v-5.0809h-13.5492z" fill-rule="evenodd"/>
    <path clip-rule="evenodd" d="m221.488 30.8972h-5.055v5.2326h3.968c.63.001 1.254.1265 1.835.3695.582.2429 1.109.5985 1.553 1.0461.882.9285 1.379 2.1572 1.39 3.4379v11.5268h5.056v-12.6391c.013-2.348-.895-4.6077-2.528-6.2943-.804-.8409-1.769-1.5115-2.837-1.9719-1.068-.4603-2.218-.7009-3.382-.7076z" fill-rule="evenodd"/>
    <path d="m216.357 36.1299h-5.132v16.4056h5.132z"/>
    <path clip-rule="evenodd" d="m186.832 30.8972h-5.056v5.2326h3.969c.626-.0013 1.247.1233 1.825.3665.577.2432 1.1.5999 1.537 1.0491.447.4531.8.9901 1.038 1.5801.239.59.358 1.2214.352 1.8578v11.5268h5.056v-12.6391c.013-2.348-.894-4.6077-2.528-6.2943-.801-.8379-1.762-1.5067-2.825-1.967-1.064-.4602-2.209-.7025-3.368-.7125z" fill-rule="evenodd"/>
    <path clip-rule="evenodd" d="m249.851 32.6162c-.65-.5255-1.364-.9672-2.124-1.3145-1.066-.4737-2.221-.715-3.387-.7078-1.418.0045-2.819.2969-4.12.8595-1.253.5523-2.386 1.3421-3.337 2.3256-.955.9927-1.71 2.1599-2.225 3.4378-.555 1.3299-.847 2.755-.859 4.1962-.02 1.445.247 2.8797.783 4.2215.495 1.2478 1.224 2.3891 2.149 3.362.934 1.0879 2.1 1.9519 3.413 2.5278 1.329.5864 2.769.8796 4.221.8595 1.167-.057 2.311-.3494 3.362-.8595.797-.3329 1.538-.7846 2.199-1.3397v1.3397c.077.665.005 1.3386-.209 1.9727-.214.6342-.565 1.2133-1.029 1.6962-.463.4828-1.028.8574-1.653 1.0971-.624.2398-1.295.3387-1.962.2897-1.111.0476-2.215-.1872-3.21-.6825-.836-.4844-1.499-1.218-1.896-2.0981v-.177h-5.511c.187 1.5187.762 2.9637 1.668 4.1962 1.125 1.1684 2.499 2.0672 4.02 2.629 1.518.5741 3.129.8654 4.752.8594 1.336.0885 2.677-.0893 3.944-.5233 1.267-.4339 2.436-1.1153 3.437-2.0045.867-.9034 1.539-1.9755 1.974-3.1497.435-1.1741.624-2.4252.554-3.6754v-21.0569h-5.056zm-1.264 12.9425c-.497.5736-1.12 1.0237-1.82 1.3144-.688.3184-1.443.4658-2.2.4298-.747.0192-1.49-.1275-2.174-.4298-.694-.302-1.315-.7504-1.82-1.3144-1.021-1.1401-1.587-2.6153-1.592-4.1457-.047-1.5546.526-3.064 1.592-4.1962.524-.5299 1.141-.9584 1.82-1.2639.693-.2703 1.431-.4075 2.174-.4044.746.0031 1.484.149 2.174.4297.684.2868 1.303.7081 1.82 1.2386.541.5536.97 1.2058 1.264 1.9212.295.7218.441 1.4955.43 2.275-.013 1.5428-.609 3.0236-1.668 4.1457z" fill-rule="evenodd"/>
    <path d="m205.791 21.6707h-5.132v5.2326h5.132z"/>
    <path d="m205.791 30.9226h-5.132v21.4107h5.132z"/>
    <path clip-rule="evenodd" d="m272.197 20.6343-4.879 15.1669h4.601l.682-2.5278h6.648l.708 2.5278h4.727l-4.904-15.1669zm1.567 8.5946 1.213-4.3984h1.896l1.213 4.3984z" fill-rule="evenodd"/>
    <path clip-rule="evenodd" d="m300.003 24.8305v-4.1962h-13.196v4.1962h4.475v6.8504h-4.475v4.2215h13.196v-4.2215h-4.475v-6.8504z" fill-rule="evenodd"/>
  </g>
</svg>